<svg width="30" height="30" viewBox="0 0 30 30" fill="none" xmlns="http://www.w3.org/2000/svg">
<rect width="30" height="30" rx="8" fill="#FFDD66"/>
<path d="M21.5625 5.625V7.70833H19.375V5.625H10.625V7.70833H8.4375V5.625H6.25V24.375H8.4375V22.2917H10.625V24.375H19.375V22.2917H21.5625V24.375H23.75V5.625H21.5625ZM10.625 20.2083H8.4375V18.125H10.625V20.2083ZM10.625 16.0417H8.4375V13.9583H10.625V16.0417ZM10.625 11.875H8.4375V9.79167H10.625V11.875ZM21.5625 20.2083H19.375V18.125H21.5625V20.2083ZM21.5625 16.0417H19.375V13.9583H21.5625V16.0417ZM21.5625 11.875H19.375V9.79167H21.5625V11.875Z" fill="black"/>
</svg>
